<svg xmlns="http://www.w3.org/2000/svg" viewBox="0 0 490 256" width="490" height="256" font-family="'Cascadia Code', 'Fira Code', Consolas, monospace">
  <style>
    .bg { fill: #0d1117; stroke: #30363d; stroke-width: 1; }
    .bar { fill: #161b22; }
    .dot { opacity: 0.9; }
    .title-text { fill: #8b949e; font-size: 12px; }
    .key { fill: #39d353; font-size: 13px; font-weight: 600; }
    .val { fill: #c9d1d9; font-size: 13px; }
    .line {
      opacity: 0;
      transform: translateX(-8px);
      animation: lineIn 0.4s ease-out forwards;
    }
    @keyframes lineIn {
      to { opacity: 1; transform: translateX(0); }
    }
  </style>
  <rect class="bg" x="0.5" y="0.5" width="489" height="255" rx="8" ry="8" />
  <path class="bar" d="M1,8 a7,7 0 0 1 7,-7 h474 a7,7 0 0 1 7,7 v26 h-488 z" />
  <circle class="dot" cx="20" cy="17" r="5" fill="#ff5f56" />
  <circle class="dot" cx="38" cy="17" r="5" fill="#ffbd2e" />
  <circle class="dot" cx="56" cy="17" r="5" fill="#27c93f" />
  <text x="245.0" y="21" text-anchor="middle" class="title-text">divyasri0629@github</text>
  <g class="line" style="animation-delay:0.00s"><text x="22" y="54" class="key">Now</text><text x="100" y="54" class="val">B.Tech IT @ Aditya Engineering College</text></g><g class="line" style="animation-delay:0.18s"><text x="22" y="80" class="key">Prev</text><text x="100" y="80" class="val">Frontend Intern @ NUNC Systems</text></g><g class="line" style="animation-delay:0.36s"><text x="22" y="106" class="key">Stack</text><text x="100" y="106" class="val">Python · Dart · Java · C</text></g><g class="line" style="animation-delay:0.54s"><text x="22" y="132" class="key">Mobile</text><text x="100" y="132" class="val">Flutter · Dart · Firebase</text></g><g class="line" style="animation-delay:0.72s"><text x="22" y="158" class="key">ML/AI</text><text x="100" y="158" class="val">Python · scikit-learn · AI/ML</text></g><g class="line" style="animation-delay:0.90s"><text x="22" y="184" class="key">Focus</text><text x="100" y="184" class="val">Software Engineering / AI/ML</text></g><g class="line" style="animation-delay:1.08s"><text x="22" y="210" class="key">CGPA</text><text x="100" y="210" class="val">9.09 / 10.0</text></g>
</svg>